<svg width="219" height="216" viewBox="0 0 219 216" fill="none" xmlns="http://www.w3.org/2000/svg">
<path d="M103.699 27.8868L142 5.7735L180.301 27.8868V72.1133L142 94.2265L103.699 72.1133V27.8868Z" fill="#FDF6A5" stroke="#FDF6A5" stroke-width="10"/>
<path d="M106.699 193.887L145 171.774L183.301 193.887V238.113L145 260.227L106.699 238.113V193.887Z" fill="#FDF6A5" stroke="#FDF6A5" stroke-width="10"/>
<path d="M53.6987 109.887L92 87.7735L130.301 109.887V154.113L92 176.227L53.6987 154.113V109.887Z" fill="#FDF6A5" stroke="#FDF6A5" stroke-width="10"/>
<path d="M153.699 109.887L192 87.7735L230.301 109.887V154.113L192 176.227L153.699 154.113V109.887Z" fill="white" stroke="#FDF6A5" stroke-width="10"/>
<path d="M5.69873 193.887L44 171.774L82.3013 193.887V238.113L44 260.227L5.69873 238.113V193.887Z" fill="white" stroke="#FDF6A5" stroke-width="10"/>
<path d="M206.699 27.8868L245 5.7735L283.301 27.8868V72.1133L245 94.2265L206.699 72.1133V27.8868Z" fill="#FDF6A5" stroke="#FDF6A5" stroke-width="10"/>
</svg>
