<svg width="283" height="191" viewBox="0 0 283 191" fill="none" xmlns="http://www.w3.org/2000/svg">
<path d="M5.69873 -47.1132L44 -69.2265L82.3013 -47.1132V-2.88675L44 19.2265L5.69873 -2.88675V-47.1132Z" fill="#FDF6A5" stroke="#FDF6A5" stroke-width="10"/>
<path d="M55.6987 35.8868L94 13.7735L132.301 35.8868V80.1133L94 102.227L55.6987 80.1133V35.8868Z" fill="#FDF6A5" stroke="#FDF6A5" stroke-width="10"/>
<path d="M5.69873 118.887L44 96.7735L82.3013 118.887V163.113L44 185.227L5.69873 163.113V118.887Z" fill="#FDF6A5" stroke="#FDF6A5" stroke-width="10"/>
<path d="M200.699 -47.1132L239 -69.2265L277.301 -47.1132V-2.88675L239 19.2265L200.699 -2.88675V-47.1132Z" fill="#FDF6A5" stroke="#FDF6A5" stroke-width="10"/>
<path d="M151.699 35.8868L190 13.7735L228.301 35.8868V80.1133L190 102.227L151.699 80.1133V35.8868Z" fill="white" stroke="#FDF6A5" stroke-width="10"/>
</svg>
