<svg width="349" height="447" viewBox="0 0 349 447" fill="none" xmlns="http://www.w3.org/2000/svg">
<path d="M155.699 36.8868L194 14.7735L232.301 36.8868V81.1133L194 103.227L155.699 81.1133V36.8868Z" fill="#FDF6A5" stroke="#FDF6A5" stroke-width="10"/>
<path d="M105.699 -45.1132L144 -67.2265L182.301 -45.1132V-0.886749L144 21.2265L105.699 -0.886749V-45.1132Z" fill="#FDF6A5" stroke="#FDF6A5" stroke-width="10"/>
<path d="M208.699 -45.1132L247 -67.2265L285.301 -45.1132V-0.886749L247 21.2265L208.699 -0.886749V-45.1132Z" fill="#FDF6A5" stroke="#FDF6A5" stroke-width="10"/>
<path d="M258.699 36.8868L297 14.7735L335.301 36.8868V81.1133L297 103.227L258.699 81.1133V36.8868Z" fill="#FDF6A5" stroke="#FDF6A5" stroke-width="10"/>
<path d="M55.6987 36.8868L94 14.7735L132.301 36.8868V81.1133L94 103.227L55.6987 81.1133V36.8868Z" fill="white" stroke="#FDF6A5" stroke-width="10"/>
<path d="M5.69873 119.887L44 97.7735L82.3013 119.887V164.113L44 186.227L5.69873 164.113V119.887Z" fill="white" stroke="#FDF6A5" stroke-width="10"/>
<path d="M105.699 119.887L144 97.7735L182.301 119.887V164.113L144 186.227L105.699 164.113V119.887Z" fill="white" stroke="#FDF6A5" stroke-width="10"/>
<path d="M155.699 204.887L194 182.774L232.301 204.887V249.113L194 271.227L155.699 249.113V204.887Z" fill="white" stroke="#FDF6A5" stroke-width="10"/>
<path d="M205.699 119.887L244 97.7735L282.301 119.887V164.113L244 186.227L205.699 164.113V119.887Z" fill="#FDF6A5" stroke="#FDF6A5" stroke-width="10"/>
<path d="M208.699 290.887L247 268.774L285.301 290.887V335.113L247 357.227L208.699 335.113V290.887Z" fill="#FDF6A5" stroke="#FDF6A5" stroke-width="10"/>
<path d="M308.699 290.887L347 268.774L385.301 290.887V335.113L347 357.227L308.699 335.113V290.887Z" fill="#FDF6A5" stroke="#FDF6A5" stroke-width="10"/>
<path d="M55.6987 205.887L94 183.774L132.301 205.887V250.113L94 272.227L55.6987 250.113V205.887Z" fill="#FDF6A5" stroke="#FDF6A5" stroke-width="10"/>
<path d="M258.699 205.887L297 183.774L335.301 205.887V250.113L297 272.227L258.699 250.113V205.887Z" fill="white" stroke="#FDF6A5" stroke-width="10"/>
<path d="M260.699 374.887L299 352.774L337.301 374.887V419.113L299 441.227L260.699 419.113V374.887Z" fill="white" stroke="#FDF6A5" stroke-width="10"/>
<path d="M308.699 119.887L347 97.7735L385.301 119.887V164.113L347 186.227L308.699 164.113V119.887Z" fill="#FDF6A5" stroke="#FDF6A5" stroke-width="10"/>
</svg>
